<?xml version="1.0" standalone="no"?>
<!DOCTYPE svg PUBLIC "-//W3C//DTD SVG 20010904//EN"
 "http://www.w3.org/TR/2001/REC-SVG-20010904/DTD/svg10.dtd">
<svg version="1.0" xmlns="http://www.w3.org/2000/svg"
 width="225.000000pt" height="225.000000pt" viewBox="0 0 225.000000 225.000000"
 preserveAspectRatio="xMidYMid meet">

<g transform="translate(0.000000,225.000000) scale(0.100000,-0.100000)"
fill="#000000" stroke="none">
<path d="M1075 1523 c-38 -8 -98 -34 -121 -52 -17 -14 -20 -21 -12 -37 9 -16
8 -17 -3 -6 -21 20 -33 15 -67 -30 -33 -43 -39 -58 -22 -58 6 0 10 7 10 15 0
9 11 21 25 27 14 6 25 17 25 24 0 7 5 16 10 19 6 3 10 2 10 -4 0 -15 -46 -62
-53 -54 -4 3 -7 -4 -7 -16 0 -19 4 -17 33 16 17 21 40 44 50 51 15 12 16 16 5
30 -11 15 -11 15 3 4 13 -10 24 -9 60 7 67 30 145 36 210 17 31 -9 65 -14 75
-10 15 5 16 4 4 -5 -12 -8 -10 -12 10 -19 14 -5 28 -8 31 -6 3 2 6 -3 6 -11 0
-11 -3 -12 -14 -3 -11 9 -18 7 -31 -5 -15 -16 -13 -17 26 -17 34 0 42 4 42 18
0 10 -6 24 -12 31 -11 10 -10 11 5 6 12 -5 17 -2 17 9 0 15 -3 15 -30 1 -23
-12 -28 -12 -24 -2 3 8 -6 18 -21 25 -15 7 -24 8 -21 4 3 -5 -1 -9 -8 -9 -8 0
-12 6 -9 12 5 15 -39 28 -63 18 -12 -4 -15 -3 -10 5 5 9 -9 12 -51 11 -32 -1
-67 -3 -78 -6z m35 -23 c11 -7 5 -8 -20 -4 -43 8 -51 14 -19 14 13 0 31 -5 39
-10z m-64 -12 c4 -7 3 -8 -4 -4 -7 4 -12 3 -12 -3 0 -6 -7 -8 -15 -5 -8 4 -22
1 -30 -6 -10 -8 -15 -9 -15 -2 0 7 15 16 33 21 17 5 33 10 34 10 1 1 5 -4 9
-11z m201 6 c-3 -3 -12 -4 -19 -1 -8 3 -5 6 6 6 11 1 17 -2 13 -5z"/>
<path d="M1088 1396 c-65 -18 -111 -56 -142 -118 -47 -93 -27 -199 49 -266 82
-72 156 -79 277 -27 13 5 33 -8 76 -49 62 -59 96 -70 126 -40 29 29 18 55 -50
117 -64 60 -65 61 -58 101 17 98 -4 173 -63 227 -60 57 -137 76 -215 55z m148
-77 c87 -52 104 -170 37 -250 -74 -87 -210 -74 -269 27 -87 148 84 312 232
223z"/>
<path d="M1130 1286 c0 -8 -7 -16 -15 -20 -8 -3 -20 -17 -27 -30 -14 -31 0
-51 50 -71 42 -18 37 -40 -9 -40 -34 0 -52 -12 -43 -27 3 -4 14 -8 25 -8 10 0
19 -7 19 -15 0 -8 7 -15 15 -15 8 0 15 6 15 13 0 8 12 19 26 25 21 10 25 18
22 45 -2 26 -10 36 -40 50 -50 24 -51 51 -3 45 29 -3 35 -1 35 14 0 11 -7 18
-20 18 -11 0 -20 7 -20 15 0 8 -7 15 -15 15 -8 0 -15 -6 -15 -14z"/>
<path d="M1432 1338 c-15 -15 -16 -31 0 -22 6 4 8 3 5 -3 -3 -5 0 -27 8 -49
18 -50 18 -128 0 -179 -14 -39 -7 -65 17 -65 6 0 4 8 -3 17 -12 15 -12 16 2
11 32 -12 52 138 28 213 -29 92 -35 99 -57 77z m35 -100 c-3 -8 -6 -5 -6 6 -1
11 2 17 5 13 3 -3 4 -12 1 -19z m20 -20 c-3 -8 -6 -5 -6 6 -1 11 2 17 5 13 3
-3 4 -12 1 -19z m-10 -60 c-3 -7 -5 -2 -5 12 0 14 2 19 5 13 2 -7 2 -19 0 -25z
m0 -80 c-3 -7 -5 -2 -5 12 0 14 2 19 5 13 2 -7 2 -19 0 -25z"/>
<path d="M834 1269 c3 -12 0 -15 -14 -12 -10 3 -28 -1 -40 -7 l-22 -12 23 -11
c12 -7 24 -19 26 -27 4 -13 3 -13 -6 0 -8 12 -11 8 -11 -17 0 -49 20 -133 32
-133 6 0 9 -3 5 -6 -8 -8 27 -76 48 -94 11 -9 19 -10 27 -2 7 7 17 3 34 -15
13 -14 24 -28 24 -29 0 -9 -11 -2 -30 18 -16 17 -23 19 -32 10 -8 -8 -9 -12
-1 -12 6 0 25 -12 42 -26 17 -14 36 -22 42 -18 7 4 9 3 5 -4 -8 -14 29 -26 74
-24 30 1 32 0 10 -7 -23 -7 -22 -8 15 -14 59 -10 65 -9 65 13 0 14 -9 21 -37
25 -101 17 -213 93 -243 165 -7 17 -16 28 -20 25 -5 -3 -6 5 -2 17 3 14 1 19
-6 14 -7 -4 -9 5 -5 30 5 33 4 37 -12 30 -15 -5 -16 -4 -6 8 7 8 10 19 7 25
-3 5 0 12 6 14 10 4 10 6 1 6 -7 1 -10 8 -6 18 5 12 3 14 -7 8 -9 -6 -11 -4
-5 5 6 10 12 7 26 -11 27 -36 33 -16 9 28 -12 21 -19 31 -16 22z m17 -252
c-10 -9 -11 -8 -5 6 3 10 9 15 12 12 3 -3 0 -11 -7 -18z m38 -41 c10 -12 8
-13 -8 -9 -12 3 -18 9 -15 14 7 12 10 11 23 -5z m145 -105 c4 -5 -3 -7 -14 -4
-23 6 -26 13 -6 13 8 0 17 -4 20 -9z m96 -31 c0 -5 -8 -10 -17 -10 -15 0 -16
2 -3 10 19 12 20 12 20 0z"/>
<path d="M1233 898 l-20 -33 39 -28 c36 -25 52 -25 26 1 -9 9 -9 12 1 12 8 0
29 10 49 22 32 19 33 22 17 34 -13 10 -23 10 -42 1 -23 -10 -24 -12 -7 -24 17
-12 17 -13 -2 -14 -10 -1 -22 -1 -26 0 -5 0 -8 -3 -8 -9 0 -22 -16 -8 -18 16
-2 23 -1 24 14 9 23 -22 28 -12 11 20 l-14 27 -20 -34z"/>
<path d="M823 455 c0 -27 2 -38 4 -22 2 15 2 37 0 50 -2 12 -4 0 -4 -28z"/>
<path d="M910 455 c0 -43 1 -45 28 -44 24 2 25 2 4 6 -21 4 -24 9 -20 44 2 21
0 39 -4 39 -5 0 -8 -20 -8 -45z"/>
<path d="M1016 483 c-6 -14 -5 -15 5 -6 7 7 10 15 7 18 -3 3 -9 -2 -12 -12z"/>
<path d="M1088 463 c5 -59 10 -63 11 -10 1 26 -3 47 -7 47 -4 0 -6 -17 -4 -37z"/>
<path d="M1143 455 c0 -27 2 -40 4 -27 2 12 11 22 18 22 8 0 16 4 19 9 4 5 -3
7 -13 4 -14 -4 -21 1 -24 19 -2 12 -4 1 -4 -27z"/>
<path d="M1235 489 c-4 -6 -5 -12 -2 -15 2 -3 7 2 10 11 7 17 1 20 -8 4z"/>
<path d="M1372 480 c0 -14 2 -19 5 -12 2 6 2 18 0 25 -3 6 -5 1 -5 -13z"/>
<path d="M1295 479 c-4 -6 -5 -12 -2 -15 2 -3 7 2 10 11 7 17 1 20 -8 4z"/>
<path d="M622 450 c0 -14 2 -19 5 -12 2 6 2 18 0 25 -3 6 -5 1 -5 -13z"/>
<path d="M1390 463 c0 -6 8 -17 18 -24 16 -13 16 -13 2 6 -8 11 -16 22 -17 24
-2 2 -3 0 -3 -6z"/>
<path d="M1561 454 c0 -11 3 -14 6 -6 3 7 2 16 -1 19 -3 4 -6 -2 -5 -13z"/>
<path d="M790 441 c0 -6 -10 -16 -22 -21 -16 -6 -18 -9 -7 -9 19 -1 45 26 35
36 -3 3 -6 1 -6 -6z"/>
<path d="M1290 441 c0 -6 4 -13 10 -16 6 -3 7 1 4 9 -7 18 -14 21 -14 7z"/>
<path d="M1372 430 c0 -14 2 -19 5 -12 2 6 2 18 0 25 -3 6 -5 1 -5 -13z"/>
<path d="M1526 427 c3 -10 9 -15 12 -12 3 3 0 11 -7 18 -10 9 -11 8 -5 -6z"/>
<path d="M1328 413 c7 -3 16 -2 19 1 4 3 -2 6 -13 5 -11 0 -14 -3 -6 -6z"/>
<path d="M1598 413 c6 -2 18 -2 25 0 6 3 1 5 -13 5 -14 0 -19 -2 -12 -5z"/>
</g>
</svg>
